<svg width="402" height="402" viewBox="0 0 402 402" fill="none" xmlns="http://www.w3.org/2000/svg">
<g filter="url(#filter0_i_2_12)">
<rect x="1" y="1" width="400" height="400" fill="#EBD7D7"/>
</g>
<rect x="0.5" y="0.5" width="401" height="401" stroke="black"/>
<g filter="url(#filter1_d_2_12)">
<path d="M84.6383 234H74.8383V208.1H51.3383V234H41.4383V173.6L50.1383 164.9H84.6383V234ZM81.0383 173.6H51.3383V206.9L58.8383 199.4H74.8383V179.8L81.0383 173.6ZM138.343 234H128.543V226.6L121.143 234H111.243L102.543 225.3V182.1H112.443V225.3H128.543V182.1H138.343V234ZM180.984 182.1L172.284 190.8H166.084V225.3H178.384V234H164.884L156.184 225.3V190.8H143.884L152.584 182.1H156.184V174.8L166.084 164.9V182.1H180.984ZM198.299 173.6H188.399V163.7H198.299V173.6ZM198.299 234H188.399V189.7L198.299 179.7V234ZM244.848 190.8H220.148V199.4H233.748L242.448 208.1V225.3L233.748 234H210.248V225.3H232.548V208.1H218.948L210.248 199.4V190.8L218.948 182.1H236.048L244.848 190.8ZM313.908 234H304.008V190.8H289.208V234H279.308V190.8H264.608V234H254.708V182.1H264.608V189.6L271.908 182.1H281.808L287.908 188.4L294.108 182.1H305.208L313.908 190.8V234ZM361.487 198.2L342.887 216.7V205.6L351.587 197V173.6H336.687V190.8H326.787V173.6L335.487 164.9H352.787L361.487 173.6V198.2ZM350.287 234H339.187V222.9H350.287V234Z" fill="#5F4B4B"/>
<path d="M84.6383 234V235H85.6383V234H84.6383ZM74.8383 234H73.8383V235H74.8383V234ZM74.8383 208.1H75.8383V207.1H74.8383V208.1ZM51.3383 208.1V207.1H50.3383V208.1H51.3383ZM51.3383 234V235H52.3383V234H51.3383ZM41.4383 234H40.4383V235H41.4383V234ZM41.4383 173.6L40.7312 172.893L40.4383 173.186V173.6H41.4383ZM50.1383 164.9V163.9H49.7241L49.4312 164.193L50.1383 164.9ZM84.6383 164.9H85.6383V163.9H84.6383V164.9ZM81.0383 173.6L81.7454 174.307L83.4525 172.6H81.0383V173.6ZM51.3383 173.6V172.6H50.3383V173.6H51.3383ZM51.3383 206.9H50.3383V209.314L52.0454 207.607L51.3383 206.9ZM58.8383 199.4V198.4H58.4241L58.1312 198.693L58.8383 199.4ZM74.8383 199.4V200.4H75.8383V199.4H74.8383ZM74.8383 179.8L74.1312 179.093L73.8383 179.386V179.8H74.8383ZM84.6383 233H74.8383V235H84.6383V233ZM75.8383 234V208.1H73.8383V234H75.8383ZM74.8383 207.1H51.3383V209.1H74.8383V207.1ZM50.3383 208.1V234H52.3383V208.1H50.3383ZM51.3383 233H41.4383V235H51.3383V233ZM42.4383 234V173.6H40.4383V234H42.4383ZM42.1454 174.307L50.8454 165.607L49.4312 164.193L40.7312 172.893L42.1454 174.307ZM50.1383 165.9H84.6383V163.9H50.1383V165.9ZM83.6383 164.9V234H85.6383V164.9H83.6383ZM81.0383 172.6H51.3383V174.6H81.0383V172.6ZM50.3383 173.6V206.9H52.3383V173.6H50.3383ZM52.0454 207.607L59.5454 200.107L58.1312 198.693L50.6312 206.193L52.0454 207.607ZM58.8383 200.4H74.8383V198.4H58.8383V200.4ZM75.8383 199.4V179.8H73.8383V199.4H75.8383ZM75.5454 180.507L81.7454 174.307L80.3312 172.893L74.1312 179.093L75.5454 180.507ZM138.343 234V235H139.343V234H138.343ZM128.543 234H127.543V235H128.543V234ZM128.543 226.6H129.543V224.186L127.836 225.893L128.543 226.6ZM121.143 234V235H121.557L121.85 234.707L121.143 234ZM111.243 234L110.536 234.707L110.829 235H111.243V234ZM102.543 225.3H101.543V225.714L101.836 226.007L102.543 225.3ZM102.543 182.1V181.1H101.543V182.1H102.543ZM112.443 182.1H113.443V181.1H112.443V182.1ZM112.443 225.3H111.443V226.3H112.443V225.3ZM128.543 225.3V226.3H129.543V225.3H128.543ZM128.543 182.1V181.1H127.543V182.1H128.543ZM138.343 182.1H139.343V181.1H138.343V182.1ZM138.343 233H128.543V235H138.343V233ZM129.543 234V226.6H127.543V234H129.543ZM127.836 225.893L120.436 233.293L121.85 234.707L129.25 227.307L127.836 225.893ZM121.143 233H111.243V235H121.143V233ZM111.95 233.293L103.25 224.593L101.836 226.007L110.536 234.707L111.95 233.293ZM103.543 225.3V182.1H101.543V225.3H103.543ZM102.543 183.1H112.443V181.1H102.543V183.1ZM111.443 182.1V225.3H113.443V182.1H111.443ZM112.443 226.3H128.543V224.3H112.443V226.3ZM129.543 225.3V182.1H127.543V225.3H129.543ZM128.543 183.1H138.343V181.1H128.543V183.1ZM137.343 182.1V234H139.343V182.1H137.343ZM180.984 182.1L181.691 182.807L183.399 181.1H180.984V182.1ZM172.284 190.8V191.8H172.699L172.991 191.507L172.284 190.8ZM166.084 190.8V189.8H165.084V190.8H166.084ZM166.084 225.3H165.084V226.3H166.084V225.3ZM178.384 225.3H179.384V224.3H178.384V225.3ZM178.384 234V235H179.384V234H178.384ZM164.884 234L164.177 234.707L164.47 235H164.884V234ZM156.184 225.3H155.184V225.714L155.477 226.007L156.184 225.3ZM156.184 190.8H157.184V189.8H156.184V190.8ZM143.884 190.8L143.177 190.093L141.47 191.8H143.884V190.8ZM152.584 182.1V181.1H152.17L151.877 181.393L152.584 182.1ZM156.184 182.1V183.1H157.184V182.1H156.184ZM156.184 174.8L155.477 174.093L155.184 174.386V174.8H156.184ZM166.084 164.9H167.084V162.486L165.377 164.193L166.084 164.9ZM166.084 182.1H165.084V183.1H166.084V182.1ZM180.277 181.393L171.577 190.093L172.991 191.507L181.691 182.807L180.277 181.393ZM172.284 189.8H166.084V191.8H172.284V189.8ZM165.084 190.8V225.3H167.084V190.8H165.084ZM166.084 226.3H178.384V224.3H166.084V226.3ZM177.384 225.3V234H179.384V225.3H177.384ZM178.384 233H164.884V235H178.384V233ZM165.591 233.293L156.891 224.593L155.477 226.007L164.177 234.707L165.591 233.293ZM157.184 225.3V190.8H155.184V225.3H157.184ZM156.184 189.8H143.884V191.8H156.184V189.8ZM144.591 191.507L153.291 182.807L151.877 181.393L143.177 190.093L144.591 191.507ZM152.584 183.1H156.184V181.1H152.584V183.1ZM157.184 182.1V174.8H155.184V182.1H157.184ZM156.891 175.507L166.791 165.607L165.377 164.193L155.477 174.093L156.891 175.507ZM165.084 164.9V182.1H167.084V164.9H165.084ZM166.084 183.1H180.984V181.1H166.084V183.1ZM198.299 173.6V174.6H199.299V173.6H198.299ZM188.399 173.6H187.399V174.6H188.399V173.6ZM188.399 163.7V162.7H187.399V163.7H188.399ZM198.299 163.7H199.299V162.7H198.299V163.7ZM198.299 234V235H199.299V234H198.299ZM188.399 234H187.399V235H188.399V234ZM188.399 189.7L187.689 188.996L187.399 189.289V189.7H188.399ZM198.299 179.7H199.299V177.269L197.589 178.996L198.299 179.7ZM198.299 172.6H188.399V174.6H198.299V172.6ZM189.399 173.6V163.7H187.399V173.6H189.399ZM188.399 164.7H198.299V162.7H188.399V164.7ZM197.299 163.7V173.6H199.299V163.7H197.299ZM198.299 233H188.399V235H198.299V233ZM189.399 234V189.7H187.399V234H189.399ZM189.11 190.404L199.01 180.404L197.589 178.996L187.689 188.996L189.11 190.404ZM197.299 179.7V234H199.299V179.7H197.299ZM244.848 190.8V191.8H247.282L245.551 190.089L244.848 190.8ZM220.148 190.8V189.8H219.148V190.8H220.148ZM220.148 199.4H219.148V200.4H220.148V199.4ZM233.748 199.4L234.455 198.693L234.162 198.4H233.748V199.4ZM242.448 208.1H243.448V207.686L243.155 207.393L242.448 208.1ZM242.448 225.3L243.155 226.007L243.448 225.714V225.3H242.448ZM233.748 234V235H234.162L234.455 234.707L233.748 234ZM210.248 234H209.248V235H210.248V234ZM210.248 225.3V224.3H209.248V225.3H210.248ZM232.548 225.3V226.3H233.548V225.3H232.548ZM232.548 208.1H233.548V207.1H232.548V208.1ZM218.948 208.1L218.241 208.807L218.533 209.1H218.948V208.1ZM210.248 199.4H209.248V199.814L209.541 200.107L210.248 199.4ZM210.248 190.8L209.541 190.093L209.248 190.386V190.8H210.248ZM218.948 182.1V181.1H218.533L218.241 181.393L218.948 182.1ZM236.048 182.1L236.751 181.389L236.459 181.1H236.048V182.1ZM244.848 189.8H220.148V191.8H244.848V189.8ZM219.148 190.8V199.4H221.148V190.8H219.148ZM220.148 200.4H233.748V198.4H220.148V200.4ZM233.041 200.107L241.741 208.807L243.155 207.393L234.455 198.693L233.041 200.107ZM241.448 208.1V225.3H243.448V208.1H241.448ZM241.741 224.593L233.041 233.293L234.455 234.707L243.155 226.007L241.741 224.593ZM233.748 233H210.248V235H233.748V233ZM211.248 234V225.3H209.248V234H211.248ZM210.248 226.3H232.548V224.3H210.248V226.3ZM233.548 225.3V208.1H231.548V225.3H233.548ZM232.548 207.1H218.948V209.1H232.548V207.1ZM219.655 207.393L210.955 198.693L209.541 200.107L218.241 208.807L219.655 207.393ZM211.248 199.4V190.8H209.248V199.4H211.248ZM210.955 191.507L219.655 182.807L218.241 181.393L209.541 190.093L210.955 191.507ZM218.948 183.1H236.048V181.1H218.948V183.1ZM235.345 182.811L244.145 191.511L245.551 190.089L236.751 181.389L235.345 182.811ZM313.908 234V235H314.908V234H313.908ZM304.008 234H303.008V235H304.008V234ZM304.008 190.8H305.008V189.8H304.008V190.8ZM289.208 190.8V189.8H288.208V190.8H289.208ZM289.208 234V235H290.208V234H289.208ZM279.308 234H278.308V235H279.308V234ZM279.308 190.8H280.308V189.8H279.308V190.8ZM264.608 190.8V189.8H263.608V190.8H264.608ZM264.608 234V235H265.608V234H264.608ZM254.708 234H253.708V235H254.708V234ZM254.708 182.1V181.1H253.708V182.1H254.708ZM264.608 182.1H265.608V181.1H264.608V182.1ZM264.608 189.6H263.608V192.061L265.324 190.297L264.608 189.6ZM271.908 182.1V181.1H271.486L271.191 181.403L271.908 182.1ZM281.808 182.1L282.526 181.404L282.232 181.1H281.808V182.1ZM287.908 188.4L287.189 189.096L287.902 189.832L288.621 189.101L287.908 188.4ZM294.108 182.1V181.1H293.689L293.395 181.399L294.108 182.1ZM305.208 182.1L305.915 181.393L305.622 181.1H305.208V182.1ZM313.908 190.8H314.908V190.386L314.615 190.093L313.908 190.8ZM313.908 233H304.008V235H313.908V233ZM305.008 234V190.8H303.008V234H305.008ZM304.008 189.8H289.208V191.8H304.008V189.8ZM288.208 190.8V234H290.208V190.8H288.208ZM289.208 233H279.308V235H289.208V233ZM280.308 234V190.8H278.308V234H280.308ZM279.308 189.8H264.608V191.8H279.308V189.8ZM263.608 190.8V234H265.608V190.8H263.608ZM264.608 233H254.708V235H264.608V233ZM255.708 234V182.1H253.708V234H255.708ZM254.708 183.1H264.608V181.1H254.708V183.1ZM263.608 182.1V189.6H265.608V182.1H263.608ZM265.324 190.297L272.624 182.797L271.191 181.403L263.891 188.903L265.324 190.297ZM271.908 183.1H281.808V181.1H271.908V183.1ZM281.089 182.796L287.189 189.096L288.626 187.704L282.526 181.404L281.089 182.796ZM288.621 189.101L294.821 182.801L293.395 181.399L287.195 187.699L288.621 189.101ZM294.108 183.1H305.208V181.1H294.108V183.1ZM304.501 182.807L313.201 191.507L314.615 190.093L305.915 181.393L304.501 182.807ZM312.908 190.8V234H314.908V190.8H312.908ZM361.487 198.2L362.192 198.909L362.487 198.616V198.2H361.487ZM342.887 216.7H341.887V219.105L343.592 217.409L342.887 216.7ZM342.887 205.6L342.184 204.889L341.887 205.182V205.6H342.887ZM351.587 197L352.29 197.711L352.587 197.418V197H351.587ZM351.587 173.6H352.587V172.6H351.587V173.6ZM336.687 173.6V172.6H335.687V173.6H336.687ZM336.687 190.8V191.8H337.687V190.8H336.687ZM326.787 190.8H325.787V191.8H326.787V190.8ZM326.787 173.6L326.08 172.893L325.787 173.186V173.6H326.787ZM335.487 164.9V163.9H335.073L334.78 164.193L335.487 164.9ZM352.787 164.9L353.494 164.193L353.201 163.9H352.787V164.9ZM361.487 173.6H362.487V173.186L362.194 172.893L361.487 173.6ZM350.287 234V235H351.287V234H350.287ZM339.187 234H338.187V235H339.187V234ZM339.187 222.9V221.9H338.187V222.9H339.187ZM350.287 222.9H351.287V221.9H350.287V222.9ZM360.782 197.491L342.182 215.991L343.592 217.409L362.192 198.909L360.782 197.491ZM343.887 216.7V205.6H341.887V216.7H343.887ZM343.59 206.311L352.29 197.711L350.884 196.289L342.184 204.889L343.59 206.311ZM352.587 197V173.6H350.587V197H352.587ZM351.587 172.6H336.687V174.6H351.587V172.6ZM335.687 173.6V190.8H337.687V173.6H335.687ZM336.687 189.8H326.787V191.8H336.687V189.8ZM327.787 190.8V173.6H325.787V190.8H327.787ZM327.494 174.307L336.194 165.607L334.78 164.193L326.08 172.893L327.494 174.307ZM335.487 165.9H352.787V163.9H335.487V165.9ZM352.08 165.607L360.78 174.307L362.194 172.893L353.494 164.193L352.08 165.607ZM360.487 173.6V198.2H362.487V173.6H360.487ZM350.287 233H339.187V235H350.287V233ZM340.187 234V222.9H338.187V234H340.187ZM339.187 223.9H350.287V221.9H339.187V223.9ZM349.287 222.9V234H351.287V222.9H349.287Z" fill="#270909"/>
<path d="M84.6383 234V235H85.6383V234H84.6383ZM74.8383 234H73.8383V235H74.8383V234ZM74.8383 208.1H75.8383V207.1H74.8383V208.1ZM51.3383 208.1V207.1H50.3383V208.1H51.3383ZM51.3383 234V235H52.3383V234H51.3383ZM41.4383 234H40.4383V235H41.4383V234ZM41.4383 173.6L40.7312 172.893L40.4383 173.186V173.6H41.4383ZM50.1383 164.9V163.9H49.7241L49.4312 164.193L50.1383 164.9ZM84.6383 164.9H85.6383V163.9H84.6383V164.9ZM81.0383 173.6L81.7454 174.307L83.4525 172.6H81.0383V173.6ZM51.3383 173.6V172.6H50.3383V173.6H51.3383ZM51.3383 206.9H50.3383V209.314L52.0454 207.607L51.3383 206.9ZM58.8383 199.4V198.4H58.4241L58.1312 198.693L58.8383 199.4ZM74.8383 199.4V200.4H75.8383V199.4H74.8383ZM74.8383 179.8L74.1312 179.093L73.8383 179.386V179.8H74.8383ZM84.6383 233H74.8383V235H84.6383V233ZM75.8383 234V208.1H73.8383V234H75.8383ZM74.8383 207.1H51.3383V209.1H74.8383V207.1ZM50.3383 208.1V234H52.3383V208.1H50.3383ZM51.3383 233H41.4383V235H51.3383V233ZM42.4383 234V173.6H40.4383V234H42.4383ZM42.1454 174.307L50.8454 165.607L49.4312 164.193L40.7312 172.893L42.1454 174.307ZM50.1383 165.9H84.6383V163.9H50.1383V165.9ZM83.6383 164.9V234H85.6383V164.9H83.6383ZM81.0383 172.6H51.3383V174.6H81.0383V172.6ZM50.3383 173.6V206.9H52.3383V173.6H50.3383ZM52.0454 207.607L59.5454 200.107L58.1312 198.693L50.6312 206.193L52.0454 207.607ZM58.8383 200.4H74.8383V198.4H58.8383V200.4ZM75.8383 199.4V179.8H73.8383V199.4H75.8383ZM75.5454 180.507L81.7454 174.307L80.3312 172.893L74.1312 179.093L75.5454 180.507ZM138.343 234V235H139.343V234H138.343ZM128.543 234H127.543V235H128.543V234ZM128.543 226.6H129.543V224.186L127.836 225.893L128.543 226.6ZM121.143 234V235H121.557L121.85 234.707L121.143 234ZM111.243 234L110.536 234.707L110.829 235H111.243V234ZM102.543 225.3H101.543V225.714L101.836 226.007L102.543 225.3ZM102.543 182.1V181.1H101.543V182.1H102.543ZM112.443 182.1H113.443V181.1H112.443V182.1ZM112.443 225.3H111.443V226.3H112.443V225.3ZM128.543 225.3V226.3H129.543V225.3H128.543ZM128.543 182.1V181.1H127.543V182.1H128.543ZM138.343 182.1H139.343V181.1H138.343V182.1ZM138.343 233H128.543V235H138.343V233ZM129.543 234V226.6H127.543V234H129.543ZM127.836 225.893L120.436 233.293L121.85 234.707L129.25 227.307L127.836 225.893ZM121.143 233H111.243V235H121.143V233ZM111.95 233.293L103.25 224.593L101.836 226.007L110.536 234.707L111.95 233.293ZM103.543 225.3V182.1H101.543V225.3H103.543ZM102.543 183.1H112.443V181.1H102.543V183.1ZM111.443 182.1V225.3H113.443V182.1H111.443ZM112.443 226.3H128.543V224.3H112.443V226.3ZM129.543 225.3V182.1H127.543V225.3H129.543ZM128.543 183.1H138.343V181.1H128.543V183.1ZM137.343 182.1V234H139.343V182.1H137.343ZM180.984 182.1L181.691 182.807L183.399 181.1H180.984V182.1ZM172.284 190.8V191.8H172.699L172.991 191.507L172.284 190.8ZM166.084 190.8V189.8H165.084V190.8H166.084ZM166.084 225.3H165.084V226.3H166.084V225.3ZM178.384 225.3H179.384V224.3H178.384V225.3ZM178.384 234V235H179.384V234H178.384ZM164.884 234L164.177 234.707L164.47 235H164.884V234ZM156.184 225.3H155.184V225.714L155.477 226.007L156.184 225.3ZM156.184 190.8H157.184V189.8H156.184V190.8ZM143.884 190.8L143.177 190.093L141.47 191.8H143.884V190.8ZM152.584 182.1V181.1H152.17L151.877 181.393L152.584 182.1ZM156.184 182.1V183.1H157.184V182.1H156.184ZM156.184 174.8L155.477 174.093L155.184 174.386V174.8H156.184ZM166.084 164.9H167.084V162.486L165.377 164.193L166.084 164.9ZM166.084 182.1H165.084V183.1H166.084V182.1ZM180.277 181.393L171.577 190.093L172.991 191.507L181.691 182.807L180.277 181.393ZM172.284 189.8H166.084V191.8H172.284V189.8ZM165.084 190.8V225.3H167.084V190.8H165.084ZM166.084 226.3H178.384V224.3H166.084V226.3ZM177.384 225.3V234H179.384V225.3H177.384ZM178.384 233H164.884V235H178.384V233ZM165.591 233.293L156.891 224.593L155.477 226.007L164.177 234.707L165.591 233.293ZM157.184 225.3V190.8H155.184V225.3H157.184ZM156.184 189.8H143.884V191.8H156.184V189.8ZM144.591 191.507L153.291 182.807L151.877 181.393L143.177 190.093L144.591 191.507ZM152.584 183.1H156.184V181.1H152.584V183.1ZM157.184 182.1V174.8H155.184V182.1H157.184ZM156.891 175.507L166.791 165.607L165.377 164.193L155.477 174.093L156.891 175.507ZM165.084 164.9V182.1H167.084V164.9H165.084ZM166.084 183.1H180.984V181.1H166.084V183.1ZM198.299 173.6V174.6H199.299V173.6H198.299ZM188.399 173.6H187.399V174.6H188.399V173.6ZM188.399 163.7V162.7H187.399V163.7H188.399ZM198.299 163.7H199.299V162.7H198.299V163.7ZM198.299 234V235H199.299V234H198.299ZM188.399 234H187.399V235H188.399V234ZM188.399 189.7L187.689 188.996L187.399 189.289V189.7H188.399ZM198.299 179.7H199.299V177.269L197.589 178.996L198.299 179.7ZM198.299 172.6H188.399V174.6H198.299V172.6ZM189.399 173.6V163.7H187.399V173.6H189.399ZM188.399 164.7H198.299V162.7H188.399V164.7ZM197.299 163.7V173.6H199.299V163.7H197.299ZM198.299 233H188.399V235H198.299V233ZM189.399 234V189.7H187.399V234H189.399ZM189.11 190.404L199.01 180.404L197.589 178.996L187.689 188.996L189.11 190.404ZM197.299 179.7V234H199.299V179.7H197.299ZM244.848 190.8V191.8H247.282L245.551 190.089L244.848 190.8ZM220.148 190.8V189.8H219.148V190.8H220.148ZM220.148 199.4H219.148V200.4H220.148V199.4ZM233.748 199.4L234.455 198.693L234.162 198.4H233.748V199.4ZM242.448 208.1H243.448V207.686L243.155 207.393L242.448 208.1ZM242.448 225.3L243.155 226.007L243.448 225.714V225.3H242.448ZM233.748 234V235H234.162L234.455 234.707L233.748 234ZM210.248 234H209.248V235H210.248V234ZM210.248 225.3V224.3H209.248V225.3H210.248ZM232.548 225.3V226.3H233.548V225.3H232.548ZM232.548 208.1H233.548V207.1H232.548V208.1ZM218.948 208.1L218.241 208.807L218.533 209.1H218.948V208.1ZM210.248 199.4H209.248V199.814L209.541 200.107L210.248 199.4ZM210.248 190.8L209.541 190.093L209.248 190.386V190.8H210.248ZM218.948 182.1V181.1H218.533L218.241 181.393L218.948 182.1ZM236.048 182.1L236.751 181.389L236.459 181.1H236.048V182.1ZM244.848 189.8H220.148V191.8H244.848V189.8ZM219.148 190.8V199.4H221.148V190.8H219.148ZM220.148 200.4H233.748V198.4H220.148V200.4ZM233.041 200.107L241.741 208.807L243.155 207.393L234.455 198.693L233.041 200.107ZM241.448 208.1V225.3H243.448V208.1H241.448ZM241.741 224.593L233.041 233.293L234.455 234.707L243.155 226.007L241.741 224.593ZM233.748 233H210.248V235H233.748V233ZM211.248 234V225.3H209.248V234H211.248ZM210.248 226.3H232.548V224.3H210.248V226.3ZM233.548 225.3V208.1H231.548V225.3H233.548ZM232.548 207.1H218.948V209.1H232.548V207.1ZM219.655 207.393L210.955 198.693L209.541 200.107L218.241 208.807L219.655 207.393ZM211.248 199.4V190.8H209.248V199.4H211.248ZM210.955 191.507L219.655 182.807L218.241 181.393L209.541 190.093L210.955 191.507ZM218.948 183.1H236.048V181.1H218.948V183.1ZM235.345 182.811L244.145 191.511L245.551 190.089L236.751 181.389L235.345 182.811ZM313.908 234V235H314.908V234H313.908ZM304.008 234H303.008V235H304.008V234ZM304.008 190.8H305.008V189.8H304.008V190.8ZM289.208 190.8V189.8H288.208V190.8H289.208ZM289.208 234V235H290.208V234H289.208ZM279.308 234H278.308V235H279.308V234ZM279.308 190.8H280.308V189.8H279.308V190.8ZM264.608 190.8V189.8H263.608V190.8H264.608ZM264.608 234V235H265.608V234H264.608ZM254.708 234H253.708V235H254.708V234ZM254.708 182.1V181.1H253.708V182.1H254.708ZM264.608 182.1H265.608V181.1H264.608V182.1ZM264.608 189.6H263.608V192.061L265.324 190.297L264.608 189.6ZM271.908 182.1V181.1H271.486L271.191 181.403L271.908 182.1ZM281.808 182.1L282.526 181.404L282.232 181.1H281.808V182.1ZM287.908 188.4L287.189 189.096L287.902 189.832L288.621 189.101L287.908 188.4ZM294.108 182.1V181.1H293.689L293.395 181.399L294.108 182.1ZM305.208 182.1L305.915 181.393L305.622 181.1H305.208V182.1ZM313.908 190.8H314.908V190.386L314.615 190.093L313.908 190.8ZM313.908 233H304.008V235H313.908V233ZM305.008 234V190.8H303.008V234H305.008ZM304.008 189.8H289.208V191.8H304.008V189.8ZM288.208 190.8V234H290.208V190.8H288.208ZM289.208 233H279.308V235H289.208V233ZM280.308 234V190.8H278.308V234H280.308ZM279.308 189.8H264.608V191.8H279.308V189.8ZM263.608 190.8V234H265.608V190.8H263.608ZM264.608 233H254.708V235H264.608V233ZM255.708 234V182.1H253.708V234H255.708ZM254.708 183.1H264.608V181.1H254.708V183.1ZM263.608 182.1V189.6H265.608V182.1H263.608ZM265.324 190.297L272.624 182.797L271.191 181.403L263.891 188.903L265.324 190.297ZM271.908 183.1H281.808V181.1H271.908V183.1ZM281.089 182.796L287.189 189.096L288.626 187.704L282.526 181.404L281.089 182.796ZM288.621 189.101L294.821 182.801L293.395 181.399L287.195 187.699L288.621 189.101ZM294.108 183.1H305.208V181.1H294.108V183.1ZM304.501 182.807L313.201 191.507L314.615 190.093L305.915 181.393L304.501 182.807ZM312.908 190.8V234H314.908V190.8H312.908ZM361.487 198.2L362.192 198.909L362.487 198.616V198.2H361.487ZM342.887 216.7H341.887V219.105L343.592 217.409L342.887 216.7ZM342.887 205.6L342.184 204.889L341.887 205.182V205.6H342.887ZM351.587 197L352.29 197.711L352.587 197.418V197H351.587ZM351.587 173.6H352.587V172.6H351.587V173.6ZM336.687 173.6V172.6H335.687V173.6H336.687ZM336.687 190.8V191.8H337.687V190.8H336.687ZM326.787 190.8H325.787V191.8H326.787V190.8ZM326.787 173.6L326.08 172.893L325.787 173.186V173.6H326.787ZM335.487 164.9V163.9H335.073L334.78 164.193L335.487 164.9ZM352.787 164.9L353.494 164.193L353.201 163.9H352.787V164.9ZM361.487 173.6H362.487V173.186L362.194 172.893L361.487 173.6ZM350.287 234V235H351.287V234H350.287ZM339.187 234H338.187V235H339.187V234ZM339.187 222.9V221.9H338.187V222.9H339.187ZM350.287 222.9H351.287V221.9H350.287V222.9ZM360.782 197.491L342.182 215.991L343.592 217.409L362.192 198.909L360.782 197.491ZM343.887 216.7V205.6H341.887V216.7H343.887ZM343.59 206.311L352.29 197.711L350.884 196.289L342.184 204.889L343.59 206.311ZM352.587 197V173.6H350.587V197H352.587ZM351.587 172.6H336.687V174.6H351.587V172.6ZM335.687 173.6V190.8H337.687V173.6H335.687ZM336.687 189.8H326.787V191.8H336.687V189.8ZM327.787 190.8V173.6H325.787V190.8H327.787ZM327.494 174.307L336.194 165.607L334.78 164.193L326.08 172.893L327.494 174.307ZM335.487 165.9H352.787V163.9H335.487V165.9ZM352.08 165.607L360.78 174.307L362.194 172.893L353.494 164.193L352.08 165.607ZM360.487 173.6V198.2H362.487V173.6H360.487ZM350.287 233H339.187V235H350.287V233ZM340.187 234V222.9H338.187V234H340.187ZM339.187 223.9H350.287V221.9H339.187V223.9ZM349.287 222.9V234H351.287V222.9H349.287Z" fill="black" fill-opacity="0.16"/>
</g>
<defs>
<filter id="filter0_i_2_12" x="0" y="0" width="402" height="406" filterUnits="userSpaceOnUse" color-interpolation-filters="sRGB">
<feFlood flood-opacity="0" result="BackgroundImageFix"/>
<feBlend mode="normal" in="SourceGraphic" in2="BackgroundImageFix" result="shape"/>
<feColorMatrix in="SourceAlpha" type="matrix" values="0 0 0 0 0 0 0 0 0 0 0 0 0 0 0 0 0 0 127 0" result="hardAlpha"/>
<feOffset dy="4"/>
<feGaussianBlur stdDeviation="2"/>
<feComposite in2="hardAlpha" operator="arithmetic" k2="-1" k3="1"/>
<feColorMatrix type="matrix" values="0 0 0 0 0 0 0 0 0 0 0 0 0 0 0 0 0 0 0.25 0"/>
<feBlend mode="normal" in2="shape" result="effect1_innerShadow_2_12"/>
</filter>
<filter id="filter1_d_2_12" x="41.4383" y="163.7" width="346.048" height="104.3" filterUnits="userSpaceOnUse" color-interpolation-filters="sRGB">
<feFlood flood-opacity="0" result="BackgroundImageFix"/>
<feColorMatrix in="SourceAlpha" type="matrix" values="0 0 0 0 0 0 0 0 0 0 0 0 0 0 0 0 0 0 127 0" result="hardAlpha"/>
<feOffset dx="14" dy="22"/>
<feGaussianBlur stdDeviation="6"/>
<feComposite in2="hardAlpha" operator="out"/>
<feColorMatrix type="matrix" values="0 0 0 0 0 0 0 0 0 0 0 0 0 0 0 0 0 0 0.25 0"/>
<feBlend mode="normal" in2="BackgroundImageFix" result="effect1_dropShadow_2_12"/>
<feBlend mode="normal" in="SourceGraphic" in2="effect1_dropShadow_2_12" result="shape"/>
</filter>
</defs>
</svg>
