<svg width="402" height="402" viewBox="0 0 402 402" fill="none" xmlns="http://www.w3.org/2000/svg">
<g filter="url(#filter0_i_2_12)">
<rect x="1" y="1" width="400" height="400" fill="#EBD7D7"/>
</g>
<rect x="0.5" y="0.5" width="401" height="401" stroke="black"/>
<g filter="url(#filter1_d_2_12)">
<path d="M44.1764 229H35.6624V169.574H44.1764V229ZM90.8637 229H82.4357V191.848H68.6757V229H60.1617V184.366H68.6757V190.816L74.9537 184.366H83.4677L90.8637 191.848V229ZM127.019 184.366L119.537 191.848H114.205V221.518H124.783V229H113.173L105.691 221.518V191.848H95.1133L102.595 184.366H105.691V178.088L114.205 169.574V184.366H127.019ZM163.238 229H139.932L132.536 221.518V191.848L139.932 184.366H155.842L163.238 191.848V206.726L155.842 214.122H142.082L149.65 206.726H154.81V191.848H141.05V221.518H163.238V229ZM204.974 199.244L196.46 207.758V191.848H183.818V229H175.304V184.366H183.818V190.816L190.01 184.366H197.578L204.974 191.848V199.244ZM243.751 217.132L231.797 229H224.831L212.963 217.132V182.302L221.391 190.816V215.756L228.357 222.464L235.237 215.756V190.816L243.751 182.302V217.132ZM265.031 177.056H256.517V168.542H265.031V177.056ZM265.031 229H256.517V190.902L265.031 182.302V229ZM309.707 229H286.401L279.005 221.518V191.848L286.401 184.366H302.311L309.707 191.848V206.726L302.311 214.122H288.551L296.119 206.726H301.279V191.848H287.519V221.518H309.707V229ZM370.535 218.164L359.785 229H352.475L345.079 221.604L337.597 229H330.459L319.623 218.164V182.302L328.051 190.816V216.788L334.415 223.066L340.865 216.272V190.816L349.379 182.302V216.272L355.657 223.066L362.107 216.788V190.816L370.535 182.302V218.164Z" fill="#5F4B4B"/>
<path d="M44.1764 229V230H45.1764V229H44.1764ZM35.6624 229H34.6624V230H35.6624V229ZM35.6624 169.574V168.574H34.6624V169.574H35.6624ZM44.1764 169.574H45.1764V168.574H44.1764V169.574ZM44.1764 228H35.6624V230H44.1764V228ZM36.6624 229V169.574H34.6624V229H36.6624ZM35.6624 170.574H44.1764V168.574H35.6624V170.574ZM43.1764 169.574V229H45.1764V169.574H43.1764ZM90.8637 229V230H91.8637V229H90.8637ZM82.4357 229H81.4357V230H82.4357V229ZM82.4357 191.848H83.4357V190.848H82.4357V191.848ZM68.6757 191.848V190.848H67.6757V191.848H68.6757ZM68.6757 229V230H69.6757V229H68.6757ZM60.1617 229H59.1617V230H60.1617V229ZM60.1617 184.366V183.366H59.1617V184.366H60.1617ZM68.6757 184.366H69.6757V183.366H68.6757V184.366ZM68.6757 190.816H67.6757V193.277L69.3923 191.513L68.6757 190.816ZM74.9537 184.366V183.366H74.5315L74.2371 183.669L74.9537 184.366ZM83.4677 184.366L84.1789 183.663L83.8853 183.366H83.4677V184.366ZM90.8637 191.848H91.8637V191.437L91.5749 191.145L90.8637 191.848ZM90.8637 228H82.4357V230H90.8637V228ZM83.4357 229V191.848H81.4357V229H83.4357ZM82.4357 190.848H68.6757V192.848H82.4357V190.848ZM67.6757 191.848V229H69.6757V191.848H67.6757ZM68.6757 228H60.1617V230H68.6757V228ZM61.1617 229V184.366H59.1617V229H61.1617ZM60.1617 185.366H68.6757V183.366H60.1617V185.366ZM67.6757 184.366V190.816H69.6757V184.366H67.6757ZM69.3923 191.513L75.6703 185.063L74.2371 183.669L67.9591 190.119L69.3923 191.513ZM74.9537 185.366H83.4677V183.366H74.9537V185.366ZM82.7565 185.069L90.1525 192.551L91.5749 191.145L84.1789 183.663L82.7565 185.069ZM89.8637 191.848V229H91.8637V191.848H89.8637ZM127.019 184.366L127.726 185.073L129.434 183.366H127.019V184.366ZM119.537 191.848V192.848H119.952L120.244 192.555L119.537 191.848ZM114.205 191.848V190.848H113.205V191.848H114.205ZM114.205 221.518H113.205V222.518H114.205V221.518ZM124.783 221.518H125.783V220.518H124.783V221.518ZM124.783 229V230H125.783V229H124.783ZM113.173 229L112.466 229.707L112.759 230H113.173V229ZM105.691 221.518H104.691V221.932L104.984 222.225L105.691 221.518ZM105.691 191.848H106.691V190.848H105.691V191.848ZM95.1133 191.848L94.4062 191.141L92.6991 192.848H95.1133V191.848ZM102.595 184.366V183.366H102.181L101.888 183.659L102.595 184.366ZM105.691 184.366V185.366H106.691V184.366H105.691ZM105.691 178.088L104.984 177.381L104.691 177.674V178.088H105.691ZM114.205 169.574H115.205V167.16L113.498 168.867L114.205 169.574ZM114.205 184.366H113.205V185.366H114.205V184.366ZM126.312 183.659L118.83 191.141L120.244 192.555L127.726 185.073L126.312 183.659ZM119.537 190.848H114.205V192.848H119.537V190.848ZM113.205 191.848V221.518H115.205V191.848H113.205ZM114.205 222.518H124.783V220.518H114.205V222.518ZM123.783 221.518V229H125.783V221.518H123.783ZM124.783 228H113.173V230H124.783V228ZM113.88 228.293L106.398 220.811L104.984 222.225L112.466 229.707L113.88 228.293ZM106.691 221.518V191.848H104.691V221.518H106.691ZM105.691 190.848H95.1133V192.848H105.691V190.848ZM95.8204 192.555L103.302 185.073L101.888 183.659L94.4062 191.141L95.8204 192.555ZM102.595 185.366H105.691V183.366H102.595V185.366ZM106.691 184.366V178.088H104.691V184.366H106.691ZM106.398 178.795L114.912 170.281L113.498 168.867L104.984 177.381L106.398 178.795ZM113.205 169.574V184.366H115.205V169.574H113.205ZM114.205 185.366H127.019V183.366H114.205V185.366ZM163.238 229V230H164.238V229H163.238ZM139.932 229L139.221 229.703L139.514 230H139.932V229ZM132.536 221.518H131.536V221.929L131.825 222.221L132.536 221.518ZM132.536 191.848L131.825 191.145L131.536 191.437V191.848H132.536ZM139.932 184.366V183.366H139.514L139.221 183.663L139.932 184.366ZM155.842 184.366L156.553 183.663L156.26 183.366H155.842V184.366ZM163.238 191.848H164.238V191.437L163.949 191.145L163.238 191.848ZM163.238 206.726L163.945 207.433L164.238 207.14V206.726H163.238ZM155.842 214.122V215.122H156.256L156.549 214.829L155.842 214.122ZM142.082 214.122L141.383 213.407L139.628 215.122H142.082V214.122ZM149.65 206.726V205.726H149.243L148.951 206.011L149.65 206.726ZM154.81 206.726V207.726H155.81V206.726H154.81ZM154.81 191.848H155.81V190.848H154.81V191.848ZM141.05 191.848V190.848H140.05V191.848H141.05ZM141.05 221.518H140.05V222.518H141.05V221.518ZM163.238 221.518H164.238V220.518H163.238V221.518ZM163.238 228H139.932V230H163.238V228ZM140.643 228.297L133.247 220.815L131.825 222.221L139.221 229.703L140.643 228.297ZM133.536 221.518V191.848H131.536V221.518H133.536ZM133.247 192.551L140.643 185.069L139.221 183.663L131.825 191.145L133.247 192.551ZM139.932 185.366H155.842V183.366H139.932V185.366ZM155.131 185.069L162.527 192.551L163.949 191.145L156.553 183.663L155.131 185.069ZM162.238 191.848V206.726H164.238V191.848H162.238ZM162.531 206.019L155.135 213.415L156.549 214.829L163.945 207.433L162.531 206.019ZM155.842 213.122H142.082V215.122H155.842V213.122ZM142.781 214.837L150.349 207.441L148.951 206.011L141.383 213.407L142.781 214.837ZM149.65 207.726H154.81V205.726H149.65V207.726ZM155.81 206.726V191.848H153.81V206.726H155.81ZM154.81 190.848H141.05V192.848H154.81V190.848ZM140.05 191.848V221.518H142.05V191.848H140.05ZM141.05 222.518H163.238V220.518H141.05V222.518ZM162.238 221.518V229H164.238V221.518H162.238ZM204.974 199.244L205.681 199.951L205.974 199.658V199.244H204.974ZM196.46 207.758H195.46V210.172L197.167 208.465L196.46 207.758ZM196.46 191.848H197.46V190.848H196.46V191.848ZM183.818 191.848V190.848H182.818V191.848H183.818ZM183.818 229V230H184.818V229H183.818ZM175.304 229H174.304V230H175.304V229ZM175.304 184.366V183.366H174.304V184.366H175.304ZM183.818 184.366H184.818V183.366H183.818V184.366ZM183.818 190.816H182.818V193.302L184.54 191.509L183.818 190.816ZM190.01 184.366V183.366H189.584L189.289 183.673L190.01 184.366ZM197.578 184.366L198.289 183.663L197.996 183.366H197.578V184.366ZM204.974 191.848H205.974V191.437L205.685 191.145L204.974 191.848ZM204.267 198.537L195.753 207.051L197.167 208.465L205.681 199.951L204.267 198.537ZM197.46 207.758V191.848H195.46V207.758H197.46ZM196.46 190.848H183.818V192.848H196.46V190.848ZM182.818 191.848V229H184.818V191.848H182.818ZM183.818 228H175.304V230H183.818V228ZM176.304 229V184.366H174.304V229H176.304ZM175.304 185.366H183.818V183.366H175.304V185.366ZM182.818 184.366V190.816H184.818V184.366H182.818ZM184.54 191.509L190.732 185.059L189.289 183.673L183.097 190.123L184.54 191.509ZM190.01 185.366H197.578V183.366H190.01V185.366ZM196.867 185.069L204.263 192.551L205.685 191.145L198.289 183.663L196.867 185.069ZM203.974 191.848V199.244H205.974V191.848H203.974ZM243.751 217.132L244.455 217.842L244.751 217.548V217.132H243.751ZM231.797 229V230H232.209L232.501 229.71L231.797 229ZM224.831 229L224.124 229.707L224.417 230H224.831V229ZM212.963 217.132H211.963V217.546L212.256 217.839L212.963 217.132ZM212.963 182.302L213.674 181.598L211.963 179.87V182.302H212.963ZM221.391 190.816H222.391V190.405L222.102 190.112L221.391 190.816ZM221.391 215.756H220.391V216.181L220.697 216.476L221.391 215.756ZM228.357 222.464L227.663 223.184L228.361 223.856L229.055 223.18L228.357 222.464ZM235.237 215.756L235.935 216.472L236.237 216.178V215.756H235.237ZM235.237 190.816L234.53 190.109L234.237 190.402V190.816H235.237ZM243.751 182.302H244.751V179.888L243.044 181.595L243.751 182.302ZM243.046 216.422L231.092 228.29L232.501 229.71L244.455 217.842L243.046 216.422ZM231.797 228H224.831V230H231.797V228ZM225.538 228.293L213.67 216.425L212.256 217.839L224.124 229.707L225.538 228.293ZM213.963 217.132V182.302H211.963V217.132H213.963ZM212.252 183.006L220.68 191.52L222.102 190.112L213.674 181.598L212.252 183.006ZM220.391 190.816V215.756H222.391V190.816H220.391ZM220.697 216.476L227.663 223.184L229.051 221.744L222.085 215.036L220.697 216.476ZM229.055 223.18L235.935 216.472L234.539 215.04L227.659 221.748L229.055 223.18ZM236.237 215.756V190.816H234.237V215.756H236.237ZM235.944 191.523L244.458 183.009L243.044 181.595L234.53 190.109L235.944 191.523ZM242.751 182.302V217.132H244.751V182.302H242.751ZM265.031 177.056V178.056H266.031V177.056H265.031ZM256.517 177.056H255.517V178.056H256.517V177.056ZM256.517 168.542V167.542H255.517V168.542H256.517ZM265.031 168.542H266.031V167.542H265.031V168.542ZM265.031 229V230H266.031V229H265.031ZM256.517 229H255.517V230H256.517V229ZM256.517 190.902L255.807 190.198L255.517 190.491V190.902H256.517ZM265.031 182.302H266.031V179.871L264.321 181.598L265.031 182.302ZM265.031 176.056H256.517V178.056H265.031V176.056ZM257.517 177.056V168.542H255.517V177.056H257.517ZM256.517 169.542H265.031V167.542H256.517V169.542ZM264.031 168.542V177.056H266.031V168.542H264.031ZM265.031 228H256.517V230H265.031V228ZM257.517 229V190.902H255.517V229H257.517ZM257.228 191.606L265.742 183.006L264.321 181.598L255.807 190.198L257.228 191.606ZM264.031 182.302V229H266.031V182.302H264.031ZM309.707 229V230H310.707V229H309.707ZM286.401 229L285.69 229.703L285.983 230H286.401V229ZM279.005 221.518H278.005V221.929L278.294 222.221L279.005 221.518ZM279.005 191.848L278.294 191.145L278.005 191.437V191.848H279.005ZM286.401 184.366V183.366H285.983L285.69 183.663L286.401 184.366ZM302.311 184.366L303.022 183.663L302.728 183.366H302.311V184.366ZM309.707 191.848H310.707V191.437L310.418 191.145L309.707 191.848ZM309.707 206.726L310.414 207.433L310.707 207.14V206.726H309.707ZM302.311 214.122V215.122H302.725L303.018 214.829L302.311 214.122ZM288.551 214.122L287.852 213.407L286.097 215.122H288.551V214.122ZM296.119 206.726V205.726H295.711L295.42 206.011L296.119 206.726ZM301.279 206.726V207.726H302.279V206.726H301.279ZM301.279 191.848H302.279V190.848H301.279V191.848ZM287.519 191.848V190.848H286.519V191.848H287.519ZM287.519 221.518H286.519V222.518H287.519V221.518ZM309.707 221.518H310.707V220.518H309.707V221.518ZM309.707 228H286.401V230H309.707V228ZM287.112 228.297L279.716 220.815L278.294 222.221L285.69 229.703L287.112 228.297ZM280.005 221.518V191.848H278.005V221.518H280.005ZM279.716 192.551L287.112 185.069L285.69 183.663L278.294 191.145L279.716 192.551ZM286.401 185.366H302.311V183.366H286.401V185.366ZM301.6 185.069L308.996 192.551L310.418 191.145L303.022 183.663L301.6 185.069ZM308.707 191.848V206.726H310.707V191.848H308.707ZM309 206.019L301.604 213.415L303.018 214.829L310.414 207.433L309 206.019ZM302.311 213.122H288.551V215.122H302.311V213.122ZM289.25 214.837L296.818 207.441L295.42 206.011L287.852 213.407L289.25 214.837ZM296.119 207.726H301.279V205.726H296.119V207.726ZM302.279 206.726V191.848H300.279V206.726H302.279ZM301.279 190.848H287.519V192.848H301.279V190.848ZM286.519 191.848V221.518H288.519V191.848H286.519ZM287.519 222.518H309.707V220.518H287.519V222.518ZM308.707 221.518V229H310.707V221.518H308.707ZM370.535 218.164L371.245 218.868L371.535 218.576V218.164H370.535ZM359.785 229V230H360.202L360.495 229.704L359.785 229ZM352.475 229L351.768 229.707L352.061 230H352.475V229ZM345.079 221.604L345.786 220.897L345.083 220.194L344.376 220.893L345.079 221.604ZM337.597 229V230H338.008L338.3 229.711L337.597 229ZM330.459 229L329.752 229.707L330.045 230H330.459V229ZM319.623 218.164H318.623V218.578L318.916 218.871L319.623 218.164ZM319.623 182.302L320.334 181.598L318.623 179.87V182.302H319.623ZM328.051 190.816H329.051V190.405L328.762 190.112L328.051 190.816ZM328.051 216.788H327.051V217.206L327.349 217.5L328.051 216.788ZM334.415 223.066L333.713 223.778L334.438 224.494L335.14 223.755L334.415 223.066ZM340.865 216.272L341.59 216.961L341.865 216.671V216.272H340.865ZM340.865 190.816L340.158 190.109L339.865 190.402V190.816H340.865ZM349.379 182.302H350.379V179.888L348.672 181.595L349.379 182.302ZM349.379 216.272H348.379V216.663L348.645 216.951L349.379 216.272ZM355.657 223.066L354.923 223.745L355.619 224.498L356.355 223.783L355.657 223.066ZM362.107 216.788L362.805 217.505L363.107 217.21V216.788H362.107ZM362.107 190.816L361.396 190.112L361.107 190.405V190.816H362.107ZM370.535 182.302H371.535V179.87L369.824 181.598L370.535 182.302ZM369.825 217.46L359.075 228.296L360.495 229.704L371.245 218.868L369.825 217.46ZM359.785 228H352.475V230H359.785V228ZM353.182 228.293L345.786 220.897L344.372 222.311L351.768 229.707L353.182 228.293ZM344.376 220.893L336.894 228.289L338.3 229.711L345.782 222.315L344.376 220.893ZM337.597 228H330.459V230H337.597V228ZM331.166 228.293L320.33 217.457L318.916 218.871L329.752 229.707L331.166 228.293ZM320.623 218.164V182.302H318.623V218.164H320.623ZM318.912 183.006L327.34 191.52L328.762 190.112L320.334 181.598L318.912 183.006ZM327.051 190.816V216.788H329.051V190.816H327.051ZM327.349 217.5L333.713 223.778L335.117 222.354L328.753 216.076L327.349 217.5ZM335.14 223.755L341.59 216.961L340.14 215.583L333.69 222.377L335.14 223.755ZM341.865 216.272V190.816H339.865V216.272H341.865ZM341.572 191.523L350.086 183.009L348.672 181.595L340.158 190.109L341.572 191.523ZM348.379 182.302V216.272H350.379V182.302H348.379ZM348.645 216.951L354.923 223.745L356.391 222.387L350.113 215.593L348.645 216.951ZM356.355 223.783L362.805 217.505L361.41 216.071L354.96 222.349L356.355 223.783ZM363.107 216.788V190.816H361.107V216.788H363.107ZM362.818 191.52L371.246 183.006L369.824 181.598L361.396 190.112L362.818 191.52ZM369.535 182.302V218.164H371.535V182.302H369.535Z" fill="#270909"/>
<path d="M44.1764 229V230H45.1764V229H44.1764ZM35.6624 229H34.6624V230H35.6624V229ZM35.6624 169.574V168.574H34.6624V169.574H35.6624ZM44.1764 169.574H45.1764V168.574H44.1764V169.574ZM44.1764 228H35.6624V230H44.1764V228ZM36.6624 229V169.574H34.6624V229H36.6624ZM35.6624 170.574H44.1764V168.574H35.6624V170.574ZM43.1764 169.574V229H45.1764V169.574H43.1764ZM90.8637 229V230H91.8637V229H90.8637ZM82.4357 229H81.4357V230H82.4357V229ZM82.4357 191.848H83.4357V190.848H82.4357V191.848ZM68.6757 191.848V190.848H67.6757V191.848H68.6757ZM68.6757 229V230H69.6757V229H68.6757ZM60.1617 229H59.1617V230H60.1617V229ZM60.1617 184.366V183.366H59.1617V184.366H60.1617ZM68.6757 184.366H69.6757V183.366H68.6757V184.366ZM68.6757 190.816H67.6757V193.277L69.3923 191.513L68.6757 190.816ZM74.9537 184.366V183.366H74.5315L74.2371 183.669L74.9537 184.366ZM83.4677 184.366L84.1789 183.663L83.8853 183.366H83.4677V184.366ZM90.8637 191.848H91.8637V191.437L91.5749 191.145L90.8637 191.848ZM90.8637 228H82.4357V230H90.8637V228ZM83.4357 229V191.848H81.4357V229H83.4357ZM82.4357 190.848H68.6757V192.848H82.4357V190.848ZM67.6757 191.848V229H69.6757V191.848H67.6757ZM68.6757 228H60.1617V230H68.6757V228ZM61.1617 229V184.366H59.1617V229H61.1617ZM60.1617 185.366H68.6757V183.366H60.1617V185.366ZM67.6757 184.366V190.816H69.6757V184.366H67.6757ZM69.3923 191.513L75.6703 185.063L74.2371 183.669L67.9591 190.119L69.3923 191.513ZM74.9537 185.366H83.4677V183.366H74.9537V185.366ZM82.7565 185.069L90.1525 192.551L91.5749 191.145L84.1789 183.663L82.7565 185.069ZM89.8637 191.848V229H91.8637V191.848H89.8637ZM127.019 184.366L127.726 185.073L129.434 183.366H127.019V184.366ZM119.537 191.848V192.848H119.952L120.244 192.555L119.537 191.848ZM114.205 191.848V190.848H113.205V191.848H114.205ZM114.205 221.518H113.205V222.518H114.205V221.518ZM124.783 221.518H125.783V220.518H124.783V221.518ZM124.783 229V230H125.783V229H124.783ZM113.173 229L112.466 229.707L112.759 230H113.173V229ZM105.691 221.518H104.691V221.932L104.984 222.225L105.691 221.518ZM105.691 191.848H106.691V190.848H105.691V191.848ZM95.1133 191.848L94.4062 191.141L92.6991 192.848H95.1133V191.848ZM102.595 184.366V183.366H102.181L101.888 183.659L102.595 184.366ZM105.691 184.366V185.366H106.691V184.366H105.691ZM105.691 178.088L104.984 177.381L104.691 177.674V178.088H105.691ZM114.205 169.574H115.205V167.16L113.498 168.867L114.205 169.574ZM114.205 184.366H113.205V185.366H114.205V184.366ZM126.312 183.659L118.83 191.141L120.244 192.555L127.726 185.073L126.312 183.659ZM119.537 190.848H114.205V192.848H119.537V190.848ZM113.205 191.848V221.518H115.205V191.848H113.205ZM114.205 222.518H124.783V220.518H114.205V222.518ZM123.783 221.518V229H125.783V221.518H123.783ZM124.783 228H113.173V230H124.783V228ZM113.88 228.293L106.398 220.811L104.984 222.225L112.466 229.707L113.88 228.293ZM106.691 221.518V191.848H104.691V221.518H106.691ZM105.691 190.848H95.1133V192.848H105.691V190.848ZM95.8204 192.555L103.302 185.073L101.888 183.659L94.4062 191.141L95.8204 192.555ZM102.595 185.366H105.691V183.366H102.595V185.366ZM106.691 184.366V178.088H104.691V184.366H106.691ZM106.398 178.795L114.912 170.281L113.498 168.867L104.984 177.381L106.398 178.795ZM113.205 169.574V184.366H115.205V169.574H113.205ZM114.205 185.366H127.019V183.366H114.205V185.366ZM163.238 229V230H164.238V229H163.238ZM139.932 229L139.221 229.703L139.514 230H139.932V229ZM132.536 221.518H131.536V221.929L131.825 222.221L132.536 221.518ZM132.536 191.848L131.825 191.145L131.536 191.437V191.848H132.536ZM139.932 184.366V183.366H139.514L139.221 183.663L139.932 184.366ZM155.842 184.366L156.553 183.663L156.26 183.366H155.842V184.366ZM163.238 191.848H164.238V191.437L163.949 191.145L163.238 191.848ZM163.238 206.726L163.945 207.433L164.238 207.14V206.726H163.238ZM155.842 214.122V215.122H156.256L156.549 214.829L155.842 214.122ZM142.082 214.122L141.383 213.407L139.628 215.122H142.082V214.122ZM149.65 206.726V205.726H149.243L148.951 206.011L149.65 206.726ZM154.81 206.726V207.726H155.81V206.726H154.81ZM154.81 191.848H155.81V190.848H154.81V191.848ZM141.05 191.848V190.848H140.05V191.848H141.05ZM141.05 221.518H140.05V222.518H141.05V221.518ZM163.238 221.518H164.238V220.518H163.238V221.518ZM163.238 228H139.932V230H163.238V228ZM140.643 228.297L133.247 220.815L131.825 222.221L139.221 229.703L140.643 228.297ZM133.536 221.518V191.848H131.536V221.518H133.536ZM133.247 192.551L140.643 185.069L139.221 183.663L131.825 191.145L133.247 192.551ZM139.932 185.366H155.842V183.366H139.932V185.366ZM155.131 185.069L162.527 192.551L163.949 191.145L156.553 183.663L155.131 185.069ZM162.238 191.848V206.726H164.238V191.848H162.238ZM162.531 206.019L155.135 213.415L156.549 214.829L163.945 207.433L162.531 206.019ZM155.842 213.122H142.082V215.122H155.842V213.122ZM142.781 214.837L150.349 207.441L148.951 206.011L141.383 213.407L142.781 214.837ZM149.65 207.726H154.81V205.726H149.65V207.726ZM155.81 206.726V191.848H153.81V206.726H155.81ZM154.81 190.848H141.05V192.848H154.81V190.848ZM140.05 191.848V221.518H142.05V191.848H140.05ZM141.05 222.518H163.238V220.518H141.05V222.518ZM162.238 221.518V229H164.238V221.518H162.238ZM204.974 199.244L205.681 199.951L205.974 199.658V199.244H204.974ZM196.46 207.758H195.46V210.172L197.167 208.465L196.46 207.758ZM196.46 191.848H197.46V190.848H196.46V191.848ZM183.818 191.848V190.848H182.818V191.848H183.818ZM183.818 229V230H184.818V229H183.818ZM175.304 229H174.304V230H175.304V229ZM175.304 184.366V183.366H174.304V184.366H175.304ZM183.818 184.366H184.818V183.366H183.818V184.366ZM183.818 190.816H182.818V193.302L184.54 191.509L183.818 190.816ZM190.01 184.366V183.366H189.584L189.289 183.673L190.01 184.366ZM197.578 184.366L198.289 183.663L197.996 183.366H197.578V184.366ZM204.974 191.848H205.974V191.437L205.685 191.145L204.974 191.848ZM204.267 198.537L195.753 207.051L197.167 208.465L205.681 199.951L204.267 198.537ZM197.46 207.758V191.848H195.46V207.758H197.46ZM196.46 190.848H183.818V192.848H196.46V190.848ZM182.818 191.848V229H184.818V191.848H182.818ZM183.818 228H175.304V230H183.818V228ZM176.304 229V184.366H174.304V229H176.304ZM175.304 185.366H183.818V183.366H175.304V185.366ZM182.818 184.366V190.816H184.818V184.366H182.818ZM184.54 191.509L190.732 185.059L189.289 183.673L183.097 190.123L184.54 191.509ZM190.01 185.366H197.578V183.366H190.01V185.366ZM196.867 185.069L204.263 192.551L205.685 191.145L198.289 183.663L196.867 185.069ZM203.974 191.848V199.244H205.974V191.848H203.974ZM243.751 217.132L244.455 217.842L244.751 217.548V217.132H243.751ZM231.797 229V230H232.209L232.501 229.71L231.797 229ZM224.831 229L224.124 229.707L224.417 230H224.831V229ZM212.963 217.132H211.963V217.546L212.256 217.839L212.963 217.132ZM212.963 182.302L213.674 181.598L211.963 179.87V182.302H212.963ZM221.391 190.816H222.391V190.405L222.102 190.112L221.391 190.816ZM221.391 215.756H220.391V216.181L220.697 216.476L221.391 215.756ZM228.357 222.464L227.663 223.184L228.361 223.856L229.055 223.18L228.357 222.464ZM235.237 215.756L235.935 216.472L236.237 216.178V215.756H235.237ZM235.237 190.816L234.53 190.109L234.237 190.402V190.816H235.237ZM243.751 182.302H244.751V179.888L243.044 181.595L243.751 182.302ZM243.046 216.422L231.092 228.29L232.501 229.71L244.455 217.842L243.046 216.422ZM231.797 228H224.831V230H231.797V228ZM225.538 228.293L213.67 216.425L212.256 217.839L224.124 229.707L225.538 228.293ZM213.963 217.132V182.302H211.963V217.132H213.963ZM212.252 183.006L220.68 191.52L222.102 190.112L213.674 181.598L212.252 183.006ZM220.391 190.816V215.756H222.391V190.816H220.391ZM220.697 216.476L227.663 223.184L229.051 221.744L222.085 215.036L220.697 216.476ZM229.055 223.18L235.935 216.472L234.539 215.04L227.659 221.748L229.055 223.18ZM236.237 215.756V190.816H234.237V215.756H236.237ZM235.944 191.523L244.458 183.009L243.044 181.595L234.53 190.109L235.944 191.523ZM242.751 182.302V217.132H244.751V182.302H242.751ZM265.031 177.056V178.056H266.031V177.056H265.031ZM256.517 177.056H255.517V178.056H256.517V177.056ZM256.517 168.542V167.542H255.517V168.542H256.517ZM265.031 168.542H266.031V167.542H265.031V168.542ZM265.031 229V230H266.031V229H265.031ZM256.517 229H255.517V230H256.517V229ZM256.517 190.902L255.807 190.198L255.517 190.491V190.902H256.517ZM265.031 182.302H266.031V179.871L264.321 181.598L265.031 182.302ZM265.031 176.056H256.517V178.056H265.031V176.056ZM257.517 177.056V168.542H255.517V177.056H257.517ZM256.517 169.542H265.031V167.542H256.517V169.542ZM264.031 168.542V177.056H266.031V168.542H264.031ZM265.031 228H256.517V230H265.031V228ZM257.517 229V190.902H255.517V229H257.517ZM257.228 191.606L265.742 183.006L264.321 181.598L255.807 190.198L257.228 191.606ZM264.031 182.302V229H266.031V182.302H264.031ZM309.707 229V230H310.707V229H309.707ZM286.401 229L285.69 229.703L285.983 230H286.401V229ZM279.005 221.518H278.005V221.929L278.294 222.221L279.005 221.518ZM279.005 191.848L278.294 191.145L278.005 191.437V191.848H279.005ZM286.401 184.366V183.366H285.983L285.69 183.663L286.401 184.366ZM302.311 184.366L303.022 183.663L302.728 183.366H302.311V184.366ZM309.707 191.848H310.707V191.437L310.418 191.145L309.707 191.848ZM309.707 206.726L310.414 207.433L310.707 207.14V206.726H309.707ZM302.311 214.122V215.122H302.725L303.018 214.829L302.311 214.122ZM288.551 214.122L287.852 213.407L286.097 215.122H288.551V214.122ZM296.119 206.726V205.726H295.711L295.42 206.011L296.119 206.726ZM301.279 206.726V207.726H302.279V206.726H301.279ZM301.279 191.848H302.279V190.848H301.279V191.848ZM287.519 191.848V190.848H286.519V191.848H287.519ZM287.519 221.518H286.519V222.518H287.519V221.518ZM309.707 221.518H310.707V220.518H309.707V221.518ZM309.707 228H286.401V230H309.707V228ZM287.112 228.297L279.716 220.815L278.294 222.221L285.69 229.703L287.112 228.297ZM280.005 221.518V191.848H278.005V221.518H280.005ZM279.716 192.551L287.112 185.069L285.69 183.663L278.294 191.145L279.716 192.551ZM286.401 185.366H302.311V183.366H286.401V185.366ZM301.6 185.069L308.996 192.551L310.418 191.145L303.022 183.663L301.6 185.069ZM308.707 191.848V206.726H310.707V191.848H308.707ZM309 206.019L301.604 213.415L303.018 214.829L310.414 207.433L309 206.019ZM302.311 213.122H288.551V215.122H302.311V213.122ZM289.25 214.837L296.818 207.441L295.42 206.011L287.852 213.407L289.25 214.837ZM296.119 207.726H301.279V205.726H296.119V207.726ZM302.279 206.726V191.848H300.279V206.726H302.279ZM301.279 190.848H287.519V192.848H301.279V190.848ZM286.519 191.848V221.518H288.519V191.848H286.519ZM287.519 222.518H309.707V220.518H287.519V222.518ZM308.707 221.518V229H310.707V221.518H308.707ZM370.535 218.164L371.245 218.868L371.535 218.576V218.164H370.535ZM359.785 229V230H360.202L360.495 229.704L359.785 229ZM352.475 229L351.768 229.707L352.061 230H352.475V229ZM345.079 221.604L345.786 220.897L345.083 220.194L344.376 220.893L345.079 221.604ZM337.597 229V230H338.008L338.3 229.711L337.597 229ZM330.459 229L329.752 229.707L330.045 230H330.459V229ZM319.623 218.164H318.623V218.578L318.916 218.871L319.623 218.164ZM319.623 182.302L320.334 181.598L318.623 179.87V182.302H319.623ZM328.051 190.816H329.051V190.405L328.762 190.112L328.051 190.816ZM328.051 216.788H327.051V217.206L327.349 217.5L328.051 216.788ZM334.415 223.066L333.713 223.778L334.438 224.494L335.14 223.755L334.415 223.066ZM340.865 216.272L341.59 216.961L341.865 216.671V216.272H340.865ZM340.865 190.816L340.158 190.109L339.865 190.402V190.816H340.865ZM349.379 182.302H350.379V179.888L348.672 181.595L349.379 182.302ZM349.379 216.272H348.379V216.663L348.645 216.951L349.379 216.272ZM355.657 223.066L354.923 223.745L355.619 224.498L356.355 223.783L355.657 223.066ZM362.107 216.788L362.805 217.505L363.107 217.21V216.788H362.107ZM362.107 190.816L361.396 190.112L361.107 190.405V190.816H362.107ZM370.535 182.302H371.535V179.87L369.824 181.598L370.535 182.302ZM369.825 217.46L359.075 228.296L360.495 229.704L371.245 218.868L369.825 217.46ZM359.785 228H352.475V230H359.785V228ZM353.182 228.293L345.786 220.897L344.372 222.311L351.768 229.707L353.182 228.293ZM344.376 220.893L336.894 228.289L338.3 229.711L345.782 222.315L344.376 220.893ZM337.597 228H330.459V230H337.597V228ZM331.166 228.293L320.33 217.457L318.916 218.871L329.752 229.707L331.166 228.293ZM320.623 218.164V182.302H318.623V218.164H320.623ZM318.912 183.006L327.34 191.52L328.762 190.112L320.334 181.598L318.912 183.006ZM327.051 190.816V216.788H329.051V190.816H327.051ZM327.349 217.5L333.713 223.778L335.117 222.354L328.753 216.076L327.349 217.5ZM335.14 223.755L341.59 216.961L340.14 215.583L333.69 222.377L335.14 223.755ZM341.865 216.272V190.816H339.865V216.272H341.865ZM341.572 191.523L350.086 183.009L348.672 181.595L340.158 190.109L341.572 191.523ZM348.379 182.302V216.272H350.379V182.302H348.379ZM348.645 216.951L354.923 223.745L356.391 222.387L350.113 215.593L348.645 216.951ZM356.355 223.783L362.805 217.505L361.41 216.071L354.96 222.349L356.355 223.783ZM363.107 216.788V190.816H361.107V216.788H363.107ZM362.818 191.52L371.246 183.006L369.824 181.598L361.396 190.112L362.818 191.52ZM369.535 182.302V218.164H371.535V182.302H369.535Z" fill="black" fill-opacity="0.16"/>
</g>
<defs>
<filter id="filter0_i_2_12" x="0" y="0" width="402" height="406" filterUnits="userSpaceOnUse" color-interpolation-filters="sRGB">
<feFlood flood-opacity="0" result="BackgroundImageFix"/>
<feBlend mode="normal" in="SourceGraphic" in2="BackgroundImageFix" result="shape"/>
<feColorMatrix in="SourceAlpha" type="matrix" values="0 0 0 0 0 0 0 0 0 0 0 0 0 0 0 0 0 0 127 0" result="hardAlpha"/>
<feOffset dy="4"/>
<feGaussianBlur stdDeviation="2"/>
<feComposite in2="hardAlpha" operator="arithmetic" k2="-1" k3="1"/>
<feColorMatrix type="matrix" values="0 0 0 0 0 0 0 0 0 0 0 0 0 0 0 0 0 0 0.25 0"/>
<feBlend mode="normal" in2="shape" result="effect1_innerShadow_2_12"/>
</filter>
<filter id="filter1_d_2_12" x="35.6624" y="168.542" width="360.873" height="94.458" filterUnits="userSpaceOnUse" color-interpolation-filters="sRGB">
<feFlood flood-opacity="0" result="BackgroundImageFix"/>
<feColorMatrix in="SourceAlpha" type="matrix" values="0 0 0 0 0 0 0 0 0 0 0 0 0 0 0 0 0 0 127 0" result="hardAlpha"/>
<feOffset dx="14" dy="22"/>
<feGaussianBlur stdDeviation="6"/>
<feComposite in2="hardAlpha" operator="out"/>
<feColorMatrix type="matrix" values="0 0 0 0 0 0 0 0 0 0 0 0 0 0 0 0 0 0 0.25 0"/>
<feBlend mode="normal" in2="BackgroundImageFix" result="effect1_dropShadow_2_12"/>
<feBlend mode="normal" in="SourceGraphic" in2="effect1_dropShadow_2_12" result="shape"/>
</filter>
</defs>
</svg>
