<svg width="950" height="244" viewBox="0 0 950 244" fill="none" xmlns="http://www.w3.org/2000/svg">
<rect width="950" height="244" rx="40.5" fill="#F38BDC"/>
<rect x="0.5" y="0.5" width="949" height="243" rx="40" stroke="black" stroke-opacity="0.99"/>
<g filter="url(#filter0_d_5_6)">
<path d="M361.496 169.28C351 169.28 342.765 167.488 336.792 163.904C330.819 160.32 327.832 155.413 327.832 149.184C327.832 146.197 329.069 143.851 331.544 142.144C334.104 140.437 337.688 139.541 342.296 139.456C342.808 144.491 344.728 148.373 348.056 151.104C351.469 153.835 356.035 155.2 361.752 155.2C372.248 155.2 377.496 151.317 377.496 143.552C377.496 140.48 376.045 137.963 373.144 136C370.328 134.037 365.379 132.032 358.296 129.984C348.227 127.168 340.845 123.584 336.152 119.232C331.459 114.795 329.112 109.12 329.112 102.208C329.112 94.4427 332.099 88.3413 338.072 83.904C344.131 79.3813 352.365 77.12 362.776 77.12C371.139 77.12 378.307 79.1253 384.28 83.136C390.253 87.0613 394.349 92.5653 396.568 99.648C395.117 101.099 393.112 102.379 390.552 103.488C387.992 104.597 385.731 105.152 383.768 105.152C382.232 105.152 381.037 104.853 380.184 104.256C379.331 103.573 378.435 102.336 377.496 100.544C375.789 97.216 373.827 94.8267 371.608 93.376C369.389 91.9253 366.445 91.2 362.776 91.2C353.645 91.2 349.08 94.2293 349.08 100.288C349.08 102.677 349.549 104.64 350.488 106.176C351.427 107.627 353.048 108.992 355.352 110.272C357.656 111.467 361.155 112.832 365.848 114.368C374.381 117.184 380.909 119.787 385.432 122.176C389.955 124.48 393.112 126.997 394.904 129.728C396.781 132.459 397.72 135.829 397.72 139.84C397.72 145.643 396.184 150.763 393.112 155.2C390.125 159.637 385.901 163.093 380.44 165.568C374.979 168.043 368.664 169.28 361.496 169.28ZM451.429 96.32C457.573 96.32 462.437 98.1973 466.021 101.952C469.605 105.707 471.397 110.827 471.397 117.312V168H452.453V119.488C452.453 116.075 451.813 113.643 450.533 112.192C449.253 110.656 447.162 109.888 444.261 109.888C438.544 109.888 432.656 112.363 426.597 117.312V168H407.653V66.752H426.597V106.176C429.84 103.189 433.68 100.8 438.117 99.008C442.64 97.216 447.077 96.32 451.429 96.32ZM518.102 169.28C507.777 169.28 499.755 166.08 494.038 159.68C488.406 153.28 485.59 144.277 485.59 132.672C485.59 121.067 488.406 112.107 494.038 105.792C499.755 99.4773 507.777 96.32 518.102 96.32C528.427 96.32 536.406 99.4773 542.038 105.792C547.755 112.107 550.614 121.067 550.614 132.672C550.614 144.277 547.755 153.28 542.038 159.68C536.406 166.08 528.427 169.28 518.102 169.28ZM518.102 156.992C522.795 156.992 526.166 155.072 528.214 151.232C530.347 147.392 531.414 141.205 531.414 132.672C531.414 124.224 530.347 118.123 528.214 114.368C526.166 110.528 522.795 108.608 518.102 108.608C513.409 108.608 509.995 110.485 507.862 114.24C505.814 117.995 504.79 124.139 504.79 132.672C504.79 141.205 505.814 147.392 507.862 151.232C509.995 155.072 513.409 156.992 518.102 156.992ZM599.684 96.32C608.815 96.32 615.727 99.3067 620.42 105.28C625.113 111.168 627.46 119.872 627.46 131.392C627.46 138.901 626.095 145.515 623.364 151.232C620.633 156.949 616.793 161.387 611.844 164.544C606.895 167.701 601.177 169.28 594.692 169.28C591.108 169.28 586.713 168.555 581.508 167.104V197.184H562.564V124.48C562.564 117.568 562.265 112.576 561.668 109.504C561.156 106.347 560.047 103.659 558.34 101.44C560.729 100.075 563.247 99.008 565.892 98.24C568.623 97.472 571.183 97.088 573.572 97.088C575.364 97.088 576.815 97.6853 577.924 98.88C579.033 100.075 579.887 101.909 580.484 104.384C585.604 99.008 592.004 96.32 599.684 96.32ZM592.004 156.992C597.295 156.992 601.305 154.816 604.036 150.464C606.852 146.112 608.26 139.755 608.26 131.392C608.26 123.456 607.236 117.653 605.188 113.984C603.14 110.229 599.897 108.352 595.46 108.352C592.729 108.352 590.084 108.992 587.524 110.272C584.964 111.552 582.959 113.131 581.508 115.008V116.672V154.688C585.007 156.224 588.505 156.992 592.004 156.992Z" fill="black"/>
<path d="M336.792 163.904L337.306 163.047L337.306 163.047L336.792 163.904ZM331.544 142.144L330.989 141.312L330.983 141.316L330.976 141.321L331.544 142.144ZM342.296 139.456L343.291 139.355L343.198 138.439L342.277 138.456L342.296 139.456ZM348.056 151.104L347.422 151.877L347.431 151.885L348.056 151.104ZM373.144 136L372.572 136.82L372.584 136.828L373.144 136ZM358.296 129.984L358.574 129.023L358.565 129.021L358.296 129.984ZM336.152 119.232L335.465 119.959L335.472 119.965L336.152 119.232ZM338.072 83.904L338.668 84.7067L338.67 84.7054L338.072 83.904ZM384.28 83.136L383.723 83.9663L383.731 83.9717L384.28 83.136ZM396.568 99.648L397.275 100.355L397.703 99.9269L397.522 99.3491L396.568 99.648ZM390.552 103.488L390.95 104.406L390.95 104.406L390.552 103.488ZM380.184 104.256L379.559 105.037L379.584 105.057L379.611 105.075L380.184 104.256ZM377.496 100.544L376.606 101L376.61 101.008L377.496 100.544ZM371.608 93.376L371.061 94.213L371.061 94.213L371.608 93.376ZM350.488 106.176L349.635 106.697L349.641 106.708L349.648 106.719L350.488 106.176ZM355.352 110.272L354.866 111.146L354.879 111.153L354.892 111.16L355.352 110.272ZM365.848 114.368L366.161 113.418L366.159 113.418L365.848 114.368ZM385.432 122.176L384.965 123.06L384.971 123.064L384.978 123.067L385.432 122.176ZM394.904 129.728L394.068 130.277L394.074 130.286L394.08 130.295L394.904 129.728ZM393.112 155.2L392.29 154.631L392.282 154.642L393.112 155.2ZM380.44 165.568L380.027 164.657L380.027 164.657L380.44 165.568ZM361.496 168.28C351.096 168.28 343.065 166.501 337.306 163.047L336.278 164.761C342.466 168.475 350.904 170.28 361.496 170.28V168.28ZM337.306 163.047C331.592 159.618 328.832 155.015 328.832 149.184H326.832C326.832 155.812 330.046 161.022 336.278 164.761L337.306 163.047ZM328.832 149.184C328.832 146.529 329.906 144.489 332.112 142.967L330.976 141.321C328.233 143.213 326.832 145.866 326.832 149.184H328.832ZM332.099 142.976C334.439 141.416 337.809 140.539 342.315 140.456L342.277 138.456C337.567 138.543 333.769 139.459 330.989 141.312L332.099 142.976ZM341.301 139.557C341.835 144.805 343.854 148.95 347.422 151.877L348.69 150.331C345.602 147.797 343.781 144.176 343.291 139.355L341.301 139.557ZM347.431 151.885C351.07 154.796 355.878 156.2 361.752 156.2V154.2C356.191 154.2 351.869 152.873 348.681 150.323L347.431 151.885ZM361.752 156.2C367.094 156.2 371.282 155.217 374.155 153.092C377.084 150.925 378.496 147.684 378.496 143.552H376.496C376.496 147.186 375.284 149.768 372.965 151.484C370.59 153.242 366.906 154.2 361.752 154.2V156.2ZM378.496 143.552C378.496 140.097 376.836 137.29 373.704 135.172L372.584 136.828C375.255 138.635 376.496 140.863 376.496 143.552H378.496ZM373.716 135.18C370.756 133.116 365.669 131.075 358.574 129.023L358.018 130.945C365.088 132.989 369.9 134.958 372.572 136.82L373.716 135.18ZM358.565 129.021C348.563 126.224 341.357 122.695 336.832 118.499L335.472 119.965C340.333 124.473 347.89 128.112 358.027 130.947L358.565 129.021ZM336.839 118.505C332.361 114.271 330.112 108.867 330.112 102.208H328.112C328.112 109.373 330.557 115.318 335.465 119.959L336.839 118.505ZM330.112 102.208C330.112 94.7429 332.962 88.946 338.668 84.7067L337.476 83.1013C331.236 87.7367 328.112 94.1425 328.112 102.208H330.112ZM338.67 84.7054C344.502 80.3523 352.501 78.12 362.776 78.12V76.12C352.229 76.12 343.76 78.4103 337.474 83.1026L338.67 84.7054ZM362.776 78.12C370.973 78.12 377.94 80.0833 383.723 83.9662L384.837 82.3058C378.674 78.1673 371.304 76.12 362.776 76.12V78.12ZM383.731 83.9717C389.503 87.7651 393.461 93.0754 395.614 99.9469L397.522 99.3491C395.237 92.0552 391.003 86.3576 384.829 82.3003L383.731 83.9717ZM395.861 98.9409C394.525 100.277 392.638 101.494 390.154 102.57L390.95 104.406C393.586 103.263 395.71 101.921 397.275 100.355L395.861 98.9409ZM390.154 102.57C387.671 103.647 385.549 104.152 383.768 104.152V106.152C385.912 106.152 388.313 105.548 390.95 104.406L390.154 102.57ZM383.768 104.152C382.345 104.152 381.38 103.873 380.757 103.437L379.611 105.075C380.694 105.834 382.119 106.152 383.768 106.152V104.152ZM380.809 103.475C380.12 102.924 379.302 101.836 378.382 100.08L376.61 101.008C377.568 102.836 378.541 104.223 379.559 105.037L380.809 103.475ZM378.386 100.088C376.631 96.6653 374.567 94.1158 372.155 92.539L371.061 94.213C373.086 95.5375 374.948 97.7667 376.606 101L378.386 100.088ZM372.155 92.539C369.723 90.9484 366.568 90.2 362.776 90.2V92.2C366.323 92.2 369.056 92.9022 371.061 94.213L372.155 92.539ZM362.776 90.2C358.132 90.2 354.474 90.9647 351.951 92.6387C349.356 94.3607 348.08 96.9653 348.08 100.288H350.08C350.08 97.552 351.087 95.6126 353.057 94.3052C355.099 92.95 358.29 92.2 362.776 92.2V90.2ZM348.08 100.288C348.08 102.803 348.574 104.961 349.635 106.697L351.341 105.655C350.525 104.319 350.08 102.552 350.08 100.288H348.08ZM349.648 106.719C350.711 108.361 352.488 109.825 354.866 111.146L355.838 109.398C353.608 108.159 352.142 106.892 351.328 105.633L349.648 106.719ZM354.892 111.16C357.269 112.392 360.829 113.778 365.537 115.318L366.159 113.418C361.48 111.886 358.043 110.541 355.812 109.384L354.892 111.16ZM365.535 115.318C374.048 118.127 380.515 120.709 384.965 123.06L385.899 121.292C381.304 118.864 374.714 116.241 366.161 113.418L365.535 115.318ZM384.978 123.067C389.424 125.332 392.41 127.751 394.068 130.277L395.74 129.179C393.814 126.244 390.485 123.628 385.886 121.285L384.978 123.067ZM394.08 130.295C395.82 132.826 396.72 135.988 396.72 139.84H398.72C398.72 135.67 397.742 132.091 395.728 129.161L394.08 130.295ZM396.72 139.84C396.72 145.455 395.237 150.373 392.29 154.631L393.934 155.769C397.131 151.152 398.72 145.83 398.72 139.84H396.72ZM392.282 154.642C389.411 158.907 385.341 162.25 380.027 164.657L380.853 166.479C386.462 163.937 390.839 160.368 393.942 155.758L392.282 154.642ZM380.027 164.657C374.718 167.063 368.549 168.28 361.496 168.28V170.28C368.779 170.28 375.239 169.023 380.853 166.479L380.027 164.657ZM466.021 101.952L466.744 101.262L466.744 101.262L466.021 101.952ZM471.397 168V169H472.397V168H471.397ZM452.453 168H451.453V169H452.453V168ZM450.533 112.192L449.765 112.832L449.774 112.843L449.783 112.854L450.533 112.192ZM426.597 117.312L425.964 116.538L425.597 116.838V117.312H426.597ZM426.597 168V169H427.597V168H426.597ZM407.653 168H406.653V169H407.653V168ZM407.653 66.752V65.752H406.653V66.752H407.653ZM426.597 66.752H427.597V65.752H426.597V66.752ZM426.597 106.176H425.597V108.457L427.274 106.912L426.597 106.176ZM438.117 99.008L437.749 98.0783L437.743 98.0808L438.117 99.008ZM451.429 97.32C457.354 97.32 461.937 99.1216 465.298 102.642L466.744 101.262C462.937 97.273 457.792 95.32 451.429 95.32V97.32ZM465.298 102.642C468.662 106.168 470.397 111.017 470.397 117.312H472.397C472.397 110.637 470.548 105.246 466.744 101.262L465.298 102.642ZM470.397 117.312V168H472.397V117.312H470.397ZM471.397 167H452.453V169H471.397V167ZM453.453 168V119.488H451.453V168H453.453ZM453.453 119.488C453.453 116 452.809 113.26 451.283 111.53L449.783 112.854C450.817 114.026 451.453 116.15 451.453 119.488H453.453ZM451.301 111.552C449.758 109.7 447.321 108.888 444.261 108.888V110.888C447.004 110.888 448.748 111.612 449.765 112.832L451.301 111.552ZM444.261 108.888C438.241 108.888 432.136 111.496 425.964 116.538L427.23 118.086C433.175 113.23 438.847 110.888 444.261 110.888V108.888ZM425.597 117.312V168H427.597V117.312H425.597ZM426.597 167H407.653V169H426.597V167ZM408.653 168V66.752H406.653V168H408.653ZM407.653 67.752H426.597V65.752H407.653V67.752ZM425.597 66.752V106.176H427.597V66.752H425.597ZM427.274 106.912C430.421 104.013 434.156 101.686 438.491 99.9352L437.743 98.0808C433.203 99.914 429.258 102.365 425.92 105.44L427.274 106.912ZM438.485 99.9377C442.905 98.1867 447.217 97.32 451.429 97.32V95.32C446.937 95.32 442.375 96.2453 437.749 98.0783L438.485 99.9377ZM494.038 159.68L493.287 160.341L493.292 160.346L494.038 159.68ZM494.038 105.792L493.297 105.121L493.292 105.126L494.038 105.792ZM542.038 105.792L541.292 106.458L541.297 106.463L542.038 105.792ZM542.038 159.68L541.292 159.014L541.287 159.019L542.038 159.68ZM528.214 151.232L527.34 150.746L527.336 150.754L527.332 150.761L528.214 151.232ZM528.214 114.368L527.332 114.839L527.338 114.85L527.345 114.862L528.214 114.368ZM507.862 114.24L506.993 113.746L506.988 113.754L506.984 113.761L507.862 114.24ZM507.862 151.232L506.98 151.703L506.984 151.71L506.988 151.718L507.862 151.232ZM518.102 168.28C507.998 168.28 500.273 165.159 494.784 159.014L493.292 160.346C499.238 167.001 507.555 170.28 518.102 170.28V168.28ZM494.789 159.019C489.367 152.859 486.59 144.123 486.59 132.672H484.59C484.59 144.432 487.445 153.701 493.287 160.341L494.789 159.019ZM486.59 132.672C486.59 121.22 489.368 112.531 494.784 106.458L493.292 105.126C487.444 111.683 484.59 120.913 484.59 132.672H486.59ZM494.779 106.463C500.267 100.402 507.994 97.32 518.102 97.32V95.32C507.559 95.32 499.243 98.553 493.297 105.121L494.779 106.463ZM518.102 97.32C528.21 97.32 535.89 100.402 541.292 106.458L542.784 105.126C536.922 98.553 528.644 95.32 518.102 95.32V97.32ZM541.297 106.463C546.795 112.536 549.614 121.224 549.614 132.672H551.614C551.614 120.909 548.715 111.677 542.779 105.121L541.297 106.463ZM549.614 132.672C549.614 144.119 546.796 152.853 541.292 159.014L542.784 160.346C548.715 153.707 551.614 144.436 551.614 132.672H549.614ZM541.287 159.019C535.885 165.159 528.206 168.28 518.102 168.28V170.28C528.649 170.28 536.927 167.001 542.789 160.341L541.287 159.019ZM518.102 157.992C520.586 157.992 522.78 157.483 524.645 156.421C526.514 155.356 527.995 153.768 529.096 151.703L527.332 150.761C526.385 152.536 525.157 153.828 523.655 154.683C522.149 155.541 520.311 155.992 518.102 155.992V157.992ZM529.088 151.718C531.351 147.645 532.414 141.243 532.414 132.672H530.414C530.414 141.168 529.344 147.139 527.34 150.746L529.088 151.718ZM532.414 132.672C532.414 124.187 531.351 117.865 529.083 113.874L527.345 114.862C529.344 118.38 530.414 124.261 530.414 132.672H532.414ZM529.096 113.897C527.995 111.832 526.514 110.244 524.645 109.179C522.78 108.117 520.586 107.608 518.102 107.608V109.608C520.311 109.608 522.149 110.059 523.655 110.917C525.157 111.772 526.385 113.064 527.332 114.839L529.096 113.897ZM518.102 107.608C513.087 107.608 509.322 109.647 506.993 113.746L508.731 114.734C510.669 111.324 513.73 109.608 518.102 109.608V107.608ZM506.984 113.761C504.81 117.748 503.79 124.107 503.79 132.672H505.79C505.79 124.171 506.818 118.242 508.74 114.719L506.984 113.761ZM503.79 132.672C503.79 141.24 504.811 147.636 506.98 151.703L508.744 150.761C506.817 147.148 505.79 141.17 505.79 132.672H503.79ZM506.988 151.718C508.133 153.779 509.645 155.362 511.532 156.424C513.415 157.483 515.618 157.992 518.102 157.992V155.992C515.893 155.992 514.042 155.541 512.512 154.68C510.986 153.822 509.724 152.525 508.736 150.746L506.988 151.718ZM620.42 105.28L619.634 105.898L619.638 105.903L620.42 105.28ZM623.364 151.232L622.462 150.801L622.462 150.801L623.364 151.232ZM611.844 164.544L611.306 163.701L611.306 163.701L611.844 164.544ZM581.508 167.104L581.776 166.141L580.508 165.787V167.104H581.508ZM581.508 197.184V198.184H582.508V197.184H581.508ZM562.564 197.184H561.564V198.184H562.564V197.184ZM561.668 109.504L560.681 109.664L560.683 109.68L560.686 109.695L561.668 109.504ZM558.34 101.44L557.844 100.572L556.848 101.141L557.547 102.05L558.34 101.44ZM565.892 98.24L565.621 97.2773L565.613 97.2797L565.892 98.24ZM577.924 98.88L578.657 98.1995L578.657 98.1995L577.924 98.88ZM580.484 104.384L579.512 104.619L579.943 106.403L581.208 105.074L580.484 104.384ZM604.036 150.464L603.196 149.921L603.189 149.933L604.036 150.464ZM605.188 113.984L604.31 114.463L604.315 114.471L605.188 113.984ZM587.524 110.272L587.077 109.378L587.077 109.378L587.524 110.272ZM581.508 115.008L580.717 114.397L580.508 114.667V115.008H581.508ZM581.508 154.688H580.508V155.341L581.106 155.604L581.508 154.688ZM599.684 97.32C608.577 97.32 615.169 100.215 619.634 105.898L621.206 104.662C616.284 98.398 609.052 95.32 599.684 95.32V97.32ZM619.638 105.903C624.133 111.542 626.46 119.984 626.46 131.392H628.46C628.46 119.76 626.094 110.794 621.202 104.657L619.638 105.903ZM626.46 131.392C626.46 138.78 625.117 145.241 622.462 150.801L624.266 151.663C627.072 145.788 628.46 139.023 628.46 131.392H626.46ZM622.462 150.801C619.805 156.364 616.085 160.652 611.306 163.701L612.382 165.387C617.501 162.121 621.462 157.535 624.266 151.663L622.462 150.801ZM611.306 163.701C606.534 166.745 601.007 168.28 594.692 168.28V170.28C601.347 170.28 607.255 168.657 612.382 165.387L611.306 163.701ZM594.692 168.28C591.232 168.28 586.934 167.578 581.776 166.141L581.24 168.067C586.493 169.531 590.984 170.28 594.692 170.28V168.28ZM580.508 167.104V197.184H582.508V167.104H580.508ZM581.508 196.184H562.564V198.184H581.508V196.184ZM563.564 197.184V124.48H561.564V197.184H563.564ZM563.564 124.48C563.564 117.562 563.267 112.487 562.65 109.313L560.686 109.695C561.264 112.665 561.564 117.574 561.564 124.48H563.564ZM562.655 109.344C562.12 106.047 560.954 103.198 559.133 100.83L557.547 102.05C559.139 104.119 560.192 106.647 560.681 109.664L562.655 109.344ZM558.836 102.308C561.157 100.982 563.601 99.9464 566.171 99.2003L565.613 97.2797C562.892 98.0696 560.302 99.1672 557.844 100.572L558.836 102.308ZM566.163 99.2026C568.821 98.4549 571.289 98.088 573.572 98.088V96.088C571.076 96.088 568.424 96.4891 565.621 97.2773L566.163 99.2026ZM573.572 98.088C575.117 98.088 576.291 98.591 577.191 99.5604L578.657 98.1995C577.338 96.7797 575.611 96.088 573.572 96.088V98.088ZM577.191 99.5604C578.136 100.578 578.934 102.226 579.512 104.619L581.456 104.149C580.839 101.593 579.931 99.5713 578.657 98.1995L577.191 99.5604ZM581.208 105.074C586.132 99.9034 592.267 97.32 599.684 97.32V95.32C591.741 95.32 585.076 98.1126 579.76 103.694L581.208 105.074ZM592.004 157.992C597.626 157.992 601.963 155.649 604.883 150.995L603.189 149.933C600.648 153.983 596.963 155.992 592.004 155.992V157.992ZM604.876 151.007C607.842 146.422 609.26 139.84 609.26 131.392H607.26C607.26 139.669 605.862 145.802 603.196 149.921L604.876 151.007ZM609.26 131.392C609.26 123.412 608.238 117.396 606.061 113.497L604.315 114.471C606.234 117.91 607.26 123.5 607.26 131.392H609.26ZM606.066 113.505C604.967 111.49 603.523 109.938 601.721 108.895C599.922 107.853 597.822 107.352 595.46 107.352V109.352C597.535 109.352 599.276 109.79 600.719 110.625C602.16 111.46 603.361 112.723 604.31 114.463L606.066 113.505ZM595.46 107.352C592.567 107.352 589.769 108.032 587.077 109.378L587.971 111.166C590.399 109.952 592.892 109.352 595.46 109.352V107.352ZM587.077 109.378C584.41 110.711 582.276 112.378 580.717 114.397L582.299 115.619C583.641 113.883 585.518 112.393 587.971 111.166L587.077 109.378ZM580.508 115.008V116.672H582.508V115.008H580.508ZM580.508 116.672V154.688H582.508V116.672H580.508ZM581.106 155.604C584.72 157.19 588.355 157.992 592.004 157.992V155.992C588.656 155.992 585.294 155.258 581.91 153.772L581.106 155.604Z" fill="black"/>
</g>
<defs>
<filter id="filter0_d_5_6" x="327.832" y="66.752" width="307.628" height="143.432" filterUnits="userSpaceOnUse" color-interpolation-filters="sRGB">
<feFlood flood-opacity="0" result="BackgroundImageFix"/>
<feColorMatrix in="SourceAlpha" type="matrix" values="0 0 0 0 0 0 0 0 0 0 0 0 0 0 0 0 0 0 127 0" result="hardAlpha"/>
<feOffset dx="4" dy="9"/>
<feGaussianBlur stdDeviation="2"/>
<feComposite in2="hardAlpha" operator="out"/>
<feColorMatrix type="matrix" values="0 0 0 0 0 0 0 0 0 0 0 0 0 0 0 0 0 0 0.25 0"/>
<feBlend mode="normal" in2="BackgroundImageFix" result="effect1_dropShadow_5_6"/>
<feBlend mode="normal" in="SourceGraphic" in2="effect1_dropShadow_5_6" result="shape"/>
</filter>
</defs>
</svg>
